<?xml version="1.0" ?><!DOCTYPE svg  PUBLIC '-//W3C//DTD SVG 1.1//EN'  'http://www.w3.org/Graphics/SVG/1.1/DTD/svg11.dtd'><svg height="56px" id="Capa_1" style="enable-background:new 0 0 100 56;" version="1.1" viewBox="0 0 100 56" width="100px" xml:space="preserve" xmlns="http://www.w3.org/2000/svg" xmlns:xlink="http://www.w3.org/1999/xlink"><g><path d="M50,0C17.197,0,0,24.168,0,28s17.197,28,50,28c32.801,0,50-24.168,50-28S82.801,0,50,0z M50,49.539   c-12.273,0-22.223-9.643-22.223-21.539S37.727,6.461,50,6.461S72.223,16.104,72.223,28S62.273,49.539,50,49.539z M50,28   c-2.035-2.234,3.316-10.77,0-10.77c-6.137,0-11.111,4.822-11.111,10.77S43.863,38.77,50,38.77c6.135,0,11.111-4.822,11.111-10.77   C61.111,25.268,51.73,29.898,50,28z"/></g><g/><g/><g/><g/><g/><g/><g/><g/><g/><g/><g/><g/><g/><g/><g/></svg>