<?xml version="1.0" ?><!DOCTYPE svg  PUBLIC '-//W3C//DTD SVG 1.1//EN'  'http://www.w3.org/Graphics/SVG/1.1/DTD/svg11.dtd'><svg id="Capa_1" style="enable-background:new 0 0 512 512;" version="1.1" viewBox="0 0 512 512" xml:space="preserve" xmlns="http://www.w3.org/2000/svg" xmlns:xlink="http://www.w3.org/1999/xlink"><style type="text/css">
	.st0{fill:#FFDE00;}
	.st1{fill:#432918;}
	.st2{fill:#BE1622;}
	.st3{fill:#FFFFFF;}
	.st4{fill:#36A9E1;}
</style><g><circle class="st0" cx="256" cy="253" id="cabeza" r="245.7"/><g id="barba"><path class="st1" d="M395.2,339.6c-26.5,18-8.8,54.1-40,84.2c-12.2,11.8-24.3,19.6-35.8,24.7     C300.6,459,278.2,465,254.1,465c-25.7,0-49.5-6.9-69.1-18.6c-9.7-4.8-19.4-11.4-29.8-20.8c-31.9-28.7-15.3-66.3-35.2-82.4     c-31.1-25.2-97.8-13.3-96.9-10.9C57,426.3,134.3,506.3,256.4,506.3s211.5-100,232.4-173.8C489.1,331.3,433.1,313.8,395.2,339.6z" id="XMLID_3_"/><path class="st1" d="M388.4,325.5c0,12.7-70.1,0-134.9,0s-128.8,16.2-128.8,3.5s61.3-39.3,126.1-39.3     S388.4,312.7,388.4,325.5z" id="XMLID_14_"/></g><g id="boca_1_"><path d="M256,373.5c-53.2,0-98.2-13.3-112.5-31.4c-3.1,3.6-4.8,9.1-4.8,17.1c0,20.4,11.4,38.7,28.2,53.3     c21.6-18.7,54-24.4,89.6-24.4c35,0,66,5.4,87.5,23.6c17.4-15.2,29.2-34.3,29.2-55.1c0-7-1.4-12.1-4-15.5     C355.9,359.7,310.3,373.5,256,373.5z" id="boca"/><path class="st2" d="M344,411.6c-21.5-18.2-53-29.6-88-29.6c-35.6,0-67.5,11.8-89,30.5c24.2,20.9,59.6,34,88.9,34     C284.8,446.4,319.8,432.8,344,411.6z" id="boca2"/><path class="st3" d="M297.7,343.7c-14.3,3.4-28.9,6.3-42.2,6.3c-15.8,0-33.5-3.8-50.3-7.6     c-27.2-6.1-51.9-11.9-61.7-0.4c7.7,9.7,24.1,18,45.9,23.7c18.9,4.9,41.9,7.8,66.6,7.8c20.8,0,40.4-2,57.3-5.6     c27.2-5.7,47.7-15.4,55.9-26.9C358.6,326.6,329,336.3,297.7,343.7z" id="dientes"/></g><path d="M207.3,197.4c-14,15.1-15.3-5.9-42.7-7.5c-21.3-1.2-32.9,23.2-42.7,7.5    c-8.8-14.2,18.9-30.3,42.9-30.3C187.8,167.2,218.7,185.2,207.3,197.4z" id="ojo_izquierdo_1_"/><path d="M394.3,197.4c-14,15.1-15.3-5.9-42.7-7.5c-21.3-1.2-32.9,23.2-42.7,7.5c-8.8-14.2,18.9-30.3,42.9-30.3    C374.8,167.2,405.7,185.2,394.3,197.4z" id="ojo_derecho"/><path class="st4" d="M75.7,242.9c4.6-17.1,28.7-37.5,35.2-35.7c6.9,1.9,17.3,30.7,12.7,47.9    c-4.6,17.1-16.1,17.7-29.3,14.2S71.1,260,75.7,242.9z" id="XMLID_1_"/><path class="st4" d="M389.5,255.6c-4.6-17.1,6.1-46.8,12.6-48.6c6.9-1.9,30.3,18,34.9,35.1    c4.6,17.1-5.1,23.4-18.3,26.9C405.5,272.7,394.1,272.8,389.5,255.6z" id="XMLID_2_"/></g></svg>